# xmcd
#
# Track frame offsets:
#	150
#	14620
#	36163
#	52431
#	71204
#	87067
#	98555
#	114013
#	129516
#	145329
#	159419
#	172159
#	183567
#	198765
#	213200
#	227278
#	247078
#	261698
#	279341
#	297389
#	310312
#
# Disc length: 4325 seconds
#
# Revision: 1
# Processed by: cddbd v1.5.2PL0 Copyright (c) Steve Scherf et al.
# Submitted via: audiograbber 1.83.01
#
DISCID=3a10e315
DTITLE=Various Artist - Halland's Country Hits Volume 1
DYEAR=1900
DGENRE=
TTITLE0=Garth Brooks - Somewhere Other Than The Night
TTITLE1=Garth Brooks - That Summer
TTITLE2=Garth Brooks - The Dance
TTITLE3=Garth Brooks - The River
TTITLE4=Garth Brooks - The Thunder Rolls
TTITLE5=Garth Brooks - Two Of A Kind (Workin' On A Full...)
TTITLE6=Garth Brooks - Unanswered Prayers
TTITLE7=Garth Brooks - What's She Doing Now
TTITLE8=Brother Phelps - Let Go
TTITLE9=T. Graham Brown - If You Could Only See Me Now
TTITLE10=Jann Brown - Tell Me Why
TTITLE11=Tracy Byrd - Holdin' Heaven
TTITLE12=Mary-Chapin Carpenter - Down At The Twist And Shout
TTITLE13=Mary-Chapin Carpenter - I Feel Lucky
TTITLE14=Mary-Chapin Carpenter - Passionate Kisses
TTITLE15=Mary-Chapin Carpenter - The Hard Way
TTITLE16=Carlene Carter - Every Little Thing
TTITLE17=Lionel Cartwright - Leap Of Faith
TTITLE18=Mark Chesnutt - Almost Goodbye
TTITLE19=Mark Chesnutt - Blame It On Texas
TTITLE20=Mark Chesnutt - Brother Jukebox
EXTD=
EXTT0=
EXTT1=
EXTT2=
EXTT3=
EXTT4=
EXTT5=
EXTT6=
EXTT7=
EXTT8=
EXTT9=
EXTT10=
EXTT11=
EXTT12=
EXTT13=
EXTT14=
EXTT15=
EXTT16=
EXTT17=
EXTT18=
EXTT19=
EXTT20=
PLAYORDER=
